<svg xmlns="http://www.w3.org/2000/svg" width="1200" height="360" viewBox="0 0 1200 360" role="img" aria-labelledby="title description" shape-rendering="crispEdges">
  <title id="title">A-Maze-Thing</title>
  <desc id="description">A dense digital maze scattered with the player, enemies, coins, hazards, portals, and an exit.</desc>
  <defs>
    <pattern id="grid" width="24" height="24" patternUnits="userSpaceOnUse">
      <path d="M24 0H0V24" fill="none" stroke="#42e8df" stroke-opacity=".055"/>
    </pattern>
    <pattern id="floor" width="72" height="72" patternUnits="userSpaceOnUse">
      <rect width="36" height="36" fill="#0a1a20" fill-opacity=".52"/>
      <rect x="36" y="36" width="36" height="36" fill="#0a1a20" fill-opacity=".52"/>
    </pattern>
    <filter id="glow" x="-80%" y="-80%" width="260%" height="260%">
      <feGaussianBlur stdDeviation="4" result="blur"/>
      <feMerge><feMergeNode in="blur"/><feMergeNode in="SourceGraphic"/></feMerge>
    </filter>
    <symbol id="player" viewBox="0 0 24 24">
      <path fill="#38f7ed" d="M9 0h6v3h3v3h3v9h-3v3h-3v3h-3v-3H9v3H6v3H3v-3h3v-3H3v-3H0V6h3V3h6zM3 9v3h3V9zm15 0v3h3V9z"/>
      <path fill="#f3fffe" d="M9 6h6v6H9zM6 9h12v3H6z"/>
    </symbol>
    <symbol id="hunter" viewBox="0 0 24 24">
      <path fill="#ff5364" d="M9 0h6v3h3v3h3v3h3v6h-3v3h-6v3h-3v-3H9v3H6v3H3v-3h3v-3H3v-3H0V9h3V6h3V3h3z"/>
      <path fill="#ffc1c8" d="M6 9h12v6H6z"/>
    </symbol>
    <symbol id="ambusher" viewBox="0 0 24 24">
      <path fill="#ffb629" d="M6 0h12v3h3v3h3v6h-3v3h-6v3h-3v3H9v-3H3v-3h6v-3H6V9H3V6h3V3zm-3 18h3v3H3zm15 0h3v3h-3zm-15 3H0v3h6v-3zm18 0v3h3v-3z"/>
      <path fill="#ffef9b" d="M6 6h12v3H6z"/>
    </symbol>
    <symbol id="wanderer" viewBox="0 0 24 24">
      <path fill="#9d7bff" d="M9 0h12v3h-3v6h-3v3h3v3h3v3h3v3H12v-3H6v3H3v3H0v-6h3v-3H0v-3h9V9H6V3h3zm0 18v3h3v-3z"/>
      <path fill="#e8ddff" d="M9 3h3v3H9z"/>
    </symbol>
    <symbol id="life" viewBox="0 0 24 24">
      <path fill="#79f25f" d="M9 0h6v3h3v3h3v3h3v6h-3v3h-3v3h-3v3H9v-3H6v-3H3v-3H0V9h3V6h3V3h3z"/>
      <path fill="#1d733c" d="M6 6h12v3h3v6h-3v3H6v-3H3V9h3z"/>
      <path fill="#f3fffe" d="M6 9h6v6H6zm12 0v6h-6V9z"/>
    </symbol>
    <symbol id="exit" viewBox="0 0 24 24">
      <path fill="#79f25f" d="M0 0h24v24H0z"/>
      <path fill="#164f3e" d="M3 3h18v18H3z"/>
      <path fill="#e8ff8a" d="M9 9h6v6H9z"/>
    </symbol>
    <symbol id="portal" viewBox="0 0 32 32">
      <path fill="#38f7ed" d="M8 0h16v4h4v4h4v16h-4v4h-4v4H8v-4H4v-4H0V8h4V4h4z"/>
      <path fill="#0c6972" d="M8 4h16v4h4v16h-4v4H8v-4H4V8h4z"/>
      <path fill="#ffb629" d="M12 12h8v8h-8z"/>
    </symbol>
    <symbol id="coin" viewBox="0 0 12 12">
      <path fill="#ffb629" d="M4 0h4v2h2v2h2v4h-2v2H8v2H4v-2H2V8H0V4h2V2h2z"/>
      <path fill="#ffef9b" d="M4 2h4v2h2v4H8v2H4V8H2V4h2z"/>
    </symbol>
    <symbol id="spike" viewBox="0 0 32 32">
      <path fill="#f3fffe" d="M0 0h4v4H0zm28 0h4v4h-4zM4 4h4v4H4zm20 0h4v4h-4zM8 8h4v4H8zm12 0h4v4h-4zM12 4h8v8h-8zM8 12h16v8H8zm4 20h8v-4h4v-4h4v-4h4v4h-4v4h-4v4H8v-4H4v-4H0v-4h4v4h4v4h4z"/>
    </symbol>
    <symbol id="shutter" viewBox="0 0 32 32">
      <rect x="12" width="8" height="32" fill="#f3fffe"/>
    </symbol>
  </defs>
  <rect width="1200" height="360" fill="#05080a"/>
  <rect width="1200" height="360" fill="url(#grid)"/>
  <rect x="24" y="24" width="1152" height="312" fill="#071318"/>
  <rect x="24" y="24" width="1152" height="312" fill="url(#floor)" opacity=".65"/>
  <g fill="none" stroke-linecap="square" stroke-linejoin="miter" opacity=".55">
    <path d="M24 24H1176V336H24V24 M96 24V60H168V132H96V204H204V276H132V336 M240 24V96H312V60H384V168H312V240H240V336 M456 24V60H528V132H456V204H528V276H420V336 M600 24V96H672V60H744V168H672V240H600V336 M816 24V60H888V132H816V204H924V276H816V336 M1032 24V96H1104V168H1032V240H1104V336 M24 96H60V168H132M168 96H240M384 96H456M528 96H600 M744 96H816M888 96H1032M1104 96H1176 M24 240H96M132 240H240M312 240H420M528 240H600 M672 240H816M924 240H1032M1104 240H1176 M204 132H276V204H348M528 168H636M744 204H852M960 132V204H1032 M60 276V312H132M168 276H240M348 276V312H420M456 276H528 M636 276V312H708M744 276H816M888 276V312H960M1032 276H1104" stroke="#0c4b55" stroke-opacity=".65" stroke-width="10"/>
    <path d="M24 24H1176V336H24V24 M96 24V60H168V132H96V204H204V276H132V336 M240 24V96H312V60H384V168H312V240H240V336 M456 24V60H528V132H456V204H528V276H420V336 M600 24V96H672V60H744V168H672V240H600V336 M816 24V60H888V132H816V204H924V276H816V336 M1032 24V96H1104V168H1032V240H1104V336 M24 96H60V168H132M168 96H240M384 96H456M528 96H600 M744 96H816M888 96H1032M1104 96H1176 M24 240H96M132 240H240M312 240H420M528 240H600 M672 240H816M924 240H1032M1104 240H1176 M204 132H276V204H348M528 168H636M744 204H852M960 132V204H1032 M60 276V312H132M168 276H240M348 276V312H420M456 276H528 M636 276V312H708M744 276H816M888 276V312H960M1032 276H1104" stroke="#42e8df" stroke-width="3"/>
  </g>
  <rect x="40" y="40" width="1120" height="280" fill="#05080a" fill-opacity=".74" stroke="#28545c" stroke-width="2"/>
  <g filter="url(#glow)" opacity=".6">
    <rect x="46" y="56" width="36" height="36" fill="none" stroke="#ff5364" stroke-width="4"/>
    <use href="#player" x="126" y="64" width="30" height="30"/>
    <use href="#coin" x="198" y="71" width="15" height="15"/>
    <use href="#coin" x="222" y="71" width="15" height="15"/>
    <use href="#coin" x="246" y="71" width="15" height="15"/>
    <use href="#wanderer" x="1062" y="59" width="30" height="30"/>
    <use href="#portal" x="1108" y="56" width="36" height="36"/>
    <use href="#spike" x="53" y="166" width="30" height="30"/>
    <use href="#ambusher" x="187" y="176" width="30" height="30"/>
    <use href="#shutter" x="265" y="137" width="32" height="32" transform="rotate(90 281 153)"/>
    <use href="#life" x="952" y="168" width="30" height="30"/>
    <use href="#coin" x="1081" y="180" width="15" height="15"/>
    <use href="#portal" x="52" y="280" width="36" height="36"/>
    <use href="#coin" x="154" y="286" width="15" height="15"/>
    <use href="#coin" x="178" y="286" width="15" height="15"/>
    <use href="#spike" x="252" y="278" width="30" height="30"/>
    <use href="#hunter" x="892" y="280" width="30" height="30"/>
    <use href="#shutter" x="995" y="278" width="32" height="32"/>
    <use href="#exit" x="1114" y="280" width="32" height="32"/>
  </g>
  <g>
    <rect x="294" y="101" width="612" height="158" fill="#05080a" fill-opacity=".88" stroke="#28545c" stroke-width="2"/>
    <text x="600" y="142" fill="#ffb629" font-family="monospace" font-size="18" font-weight="700" text-anchor="middle" letter-spacing="3">ENDLESS DIGITAL LABYRINTH</text>
    <text x="600" y="198" fill="#f3fffe" font-family="monospace" font-size="51" font-weight="900" text-anchor="middle">A-MAZE-THING</text>
    <circle cx="432" cy="226" r="5" fill="#79f25f" filter="url(#glow)"/>
    <text x="600" y="232" fill="#789096" font-family="monospace" font-size="15" font-weight="700" text-anchor="middle" letter-spacing="2">SYSTEM READY // EXIT QUESTIONABLE</text>
  </g>
</svg>